<svg width="30" height="25" viewBox="0 0 30 25" fill="none" xmlns="http://www.w3.org/2000/svg">
<path d="M30.0009 12.4946C29.9996 11.17 29.6232 9.8729 28.9153 8.75334C28.2075 7.63377 27.197 6.73754 26.0009 6.16838V5.99463C25.9998 4.70615 25.5839 3.45227 24.8148 2.41852C24.0457 1.38477 22.9642 0.626061 21.7304 0.254662C20.4966 -0.116736 19.1761 -0.0810961 17.9641 0.356309C16.7521 0.793715 15.7132 1.60965 15.0009 2.68338C14.2887 1.60965 13.2497 0.793715 12.0378 0.356309C10.8258 -0.0810961 9.50525 -0.116736 8.27146 0.254662C7.03767 0.626061 5.95621 1.38477 5.1871 2.41852C4.41799 3.45227 4.00209 4.70615 4.00094 5.99463V6.16838C2.80386 6.73599 1.79243 7.63165 1.0842 8.75128C0.375963 9.87092 0 11.1685 0 12.4934C0 13.8182 0.375963 15.1158 1.0842 16.2355C1.79243 17.3551 2.80386 18.2508 4.00094 18.8184V18.9946C4.00209 20.2831 4.41799 21.537 5.1871 22.5707C5.95621 23.6045 7.03767 24.3632 8.27146 24.7346C9.50525 25.106 10.8258 25.0704 12.0378 24.6329C13.2497 24.1955 14.2887 23.3796 15.0009 22.3059C15.7132 23.3796 16.7521 24.1955 17.9641 24.6329C19.1761 25.0704 20.4966 25.106 21.7304 24.7346C22.9642 24.3632 24.0457 23.6045 24.8148 22.5707C25.5839 21.537 25.9998 20.2831 26.0009 18.9946V18.8184C27.1968 18.2496 28.2072 17.3539 28.9151 16.2347C29.623 15.1156 29.9994 13.8189 30.0009 12.4946ZM10.0009 22.9946C9.01462 22.9945 8.06313 22.6299 7.32922 21.971C6.5953 21.3121 6.13072 20.4052 6.02469 19.4246C6.34807 19.4708 6.67428 19.4942 7.00094 19.4946H8.00094C8.26615 19.4946 8.52051 19.3893 8.70804 19.2017C8.89558 19.0142 9.00094 18.7598 9.00094 18.4946C9.00094 18.2294 8.89558 17.9751 8.70804 17.7875C8.52051 17.6 8.26615 17.4946 8.00094 17.4946H7.00094C5.82039 17.496 4.67743 17.0796 3.77441 16.3192C2.87139 15.5587 2.26658 14.5033 2.06704 13.3398C1.86749 12.1762 2.0861 10.9795 2.68416 9.96169C3.28221 8.94383 4.22113 8.17042 5.33469 7.77838C5.52953 7.7094 5.6982 7.58173 5.81751 7.41295C5.93682 7.24417 6.0009 7.04257 6.00094 6.83588V5.99463C6.00094 4.93376 6.42236 3.91635 7.17251 3.1662C7.92266 2.41606 8.94007 1.99463 10.0009 1.99463C11.0618 1.99463 12.0792 2.41606 12.8294 3.1662C13.5795 3.91635 14.0009 4.93376 14.0009 5.99463V14.5271C12.9028 13.5395 11.4778 12.9935 10.0009 12.9946C9.73572 12.9946 9.48137 13.1 9.29383 13.2875C9.10629 13.4751 9.00094 13.7294 9.00094 13.9946C9.00094 14.2598 9.10629 14.5142 9.29383 14.7017C9.48137 14.8893 9.73572 14.9946 10.0009 14.9946C11.0618 14.9946 12.0792 15.4161 12.8294 16.1662C13.5795 16.9163 14.0009 17.9338 14.0009 18.9946C14.0009 20.0555 13.5795 21.0729 12.8294 21.8231C12.0792 22.5732 11.0618 22.9946 10.0009 22.9946ZM23.0009 17.4946H22.0009C21.7357 17.4946 21.4814 17.6 21.2938 17.7875C21.1063 17.9751 21.0009 18.2294 21.0009 18.4946C21.0009 18.7598 21.1063 19.0142 21.2938 19.2017C21.4814 19.3893 21.7357 19.4946 22.0009 19.4946H23.0009C23.3276 19.4942 23.6538 19.4708 23.9772 19.4246C23.8941 20.193 23.5902 20.9208 23.1023 21.5201C22.6144 22.1194 21.9633 22.5645 21.2278 22.8017C20.4922 23.0388 19.7038 23.0578 18.9577 22.8563C18.2116 22.6549 17.5398 22.2416 17.0236 21.6665C16.5074 21.0914 16.1688 20.379 16.0489 19.6156C15.9289 18.8521 16.0326 18.0703 16.3476 17.3646C16.6625 16.6588 17.1751 16.0594 17.8235 15.6389C18.4718 15.2183 19.2281 14.9945 20.0009 14.9946C20.2662 14.9946 20.5205 14.8893 20.708 14.7017C20.8956 14.5142 21.0009 14.2598 21.0009 13.9946C21.0009 13.7294 20.8956 13.4751 20.708 13.2875C20.5205 13.1 20.2662 12.9946 20.0009 12.9946C18.524 12.9935 17.099 13.5395 16.0009 14.5271V5.99463C16.0009 4.93376 16.4224 3.91635 17.1725 3.1662C17.9227 2.41606 18.9401 1.99463 20.0009 1.99463C21.0618 1.99463 22.0792 2.41606 22.8294 3.1662C23.5795 3.91635 24.0009 4.93376 24.0009 5.99463V6.83588C24.001 7.04257 24.0651 7.24417 24.1844 7.41295C24.3037 7.58173 24.4723 7.7094 24.6672 7.77838C25.7807 8.17042 26.7197 8.94383 27.3177 9.96169C27.9158 10.9795 28.1344 12.1762 27.9348 13.3398C27.7353 14.5033 27.1305 15.5587 26.2275 16.3192C25.3244 17.0796 24.1815 17.496 23.0009 17.4946ZM25.0009 10.9946C25.0009 11.2598 24.8956 11.5142 24.708 11.7017C24.5205 11.8893 24.2662 11.9946 24.0009 11.9946H23.5009C22.3075 11.9946 21.1629 11.5205 20.319 10.6766C19.475 9.8327 19.0009 8.6881 19.0009 7.49463V6.99463C19.0009 6.72941 19.1063 6.47506 19.2938 6.28752C19.4814 6.09999 19.7357 5.99463 20.0009 5.99463C20.2662 5.99463 20.5205 6.09999 20.708 6.28752C20.8956 6.47506 21.0009 6.72941 21.0009 6.99463V7.49463C21.0009 8.15767 21.2643 8.79356 21.7332 9.2624C22.202 9.73124 22.8379 9.99463 23.5009 9.99463H24.0009C24.2662 9.99463 24.5205 10.1 24.708 10.2875C24.8956 10.4751 25.0009 10.7294 25.0009 10.9946ZM6.50094 11.9946H6.00094C5.73572 11.9946 5.48137 11.8893 5.29383 11.7017C5.10629 11.5142 5.00094 11.2598 5.00094 10.9946C5.00094 10.7294 5.10629 10.4751 5.29383 10.2875C5.48137 10.1 5.73572 9.99463 6.00094 9.99463H6.50094C7.16398 9.99463 7.79986 9.73124 8.2687 9.2624C8.73755 8.79356 9.00094 8.15767 9.00094 7.49463V6.99463C9.00094 6.72941 9.10629 6.47506 9.29383 6.28752C9.48137 6.09999 9.73572 5.99463 10.0009 5.99463C10.2662 5.99463 10.5205 6.09999 10.708 6.28752C10.8956 6.47506 11.0009 6.72941 11.0009 6.99463V7.49463C11.0009 8.6881 10.5268 9.8327 9.68292 10.6766C8.839 11.5205 7.69441 11.9946 6.50094 11.9946Z" fill="#0040AC"/>
</svg>
