<svg width="48" height="48" viewBox="0 0 48 48" fill="none" xmlns="http://www.w3.org/2000/svg">
<g opacity="0.34">
<path d="M12.7344 8.18848H34.2852V18.084C34.2852 18.8101 33.8836 19.4767 33.2417 19.816L24.3929 24.4939C23.8184 24.7977 23.1306 24.7967 22.5569 24.4915L13.7731 19.8172C13.1338 19.477 12.7344 18.8119 12.7344 18.0877V8.18848Z" fill="#D9D9D9"/>
<path d="M12.7344 8.18848H34.2852V18.084C34.2852 18.8101 33.8836 19.4767 33.2417 19.816L24.3929 24.4939C23.8184 24.7977 23.1306 24.7967 22.5569 24.4915L13.7731 19.8172C13.1338 19.477 12.7344 18.8119 12.7344 18.0877V8.18848Z" fill="url(#paint0_linear_1284_18261)"/>
</g>
<path d="M12.7344 8.18848H34.2852V18.084C34.2852 18.8101 33.8836 19.4767 33.2417 19.816L24.3929 24.4939C23.8184 24.7977 23.1306 24.7967 22.5569 24.4915L13.7731 19.8172C13.1338 19.477 12.7344 18.8119 12.7344 18.0877V8.18848Z" stroke="#2A0674" stroke-width="1.46938" stroke-linejoin="round"/>
<path d="M22.5306 15.1085C23.1364 15.458 23.8827 15.458 24.4886 15.1085L33.3027 10.0235C34.6095 9.2695 34.6095 7.38339 33.3027 6.62944L24.4886 1.54439C23.8827 1.19484 23.1364 1.19484 22.5306 1.54439L13.7165 6.62944C12.4096 7.38339 12.4096 9.2695 13.7165 10.0235L22.5306 15.1085Z" fill="url(#paint1_linear_1284_18261)" stroke="#2A0674" stroke-width="1.46938" stroke-linejoin="round"/>
<defs>
<linearGradient id="paint0_linear_1284_18261" x1="23.5098" y1="8.18848" x2="23.5098" y2="24.9796" gradientUnits="userSpaceOnUse">
<stop stop-color="#A67BFF"/>
<stop offset="1" stop-color="#D7C3FF"/>
</linearGradient>
<linearGradient id="paint1_linear_1284_18261" x1="23.5096" y1="0.979565" x2="23.5096" y2="15.6733" gradientUnits="userSpaceOnUse">
<stop stop-color="#A67BFF"/>
<stop offset="1" stop-color="#D7C3FF"/>
</linearGradient>
</defs>
</svg>
